<?xml version="1.0" ?><svg enable-background="new 0 0 64 64" id="Layer_1" version="1.1" viewBox="0 0 64 64" xml:space="preserve" xmlns="http://www.w3.org/2000/svg" xmlns:xlink="http://www.w3.org/1999/xlink"><g><path d="M32,1c-1.1044922,0-2,0.8955078-2,2s0.8955078,2,2,2c14.8876953,0,27,12.1123047,27,27S46.8876953,59,32,59   S5,46.8876953,5,32C5,19.5585938,13.421875,8.78125,25.4814453,5.7919922   c1.0722656-0.265625,1.7255859-1.3505859,1.4599609-2.4228516c-0.265625-1.0732422-1.3535156-1.7246094-2.4228516-1.4599609   C10.6708984,5.3417969,1,17.7158203,1,32c0,17.09375,13.90625,31,31,31s31-13.90625,31-31S49.09375,1,32,1z"/><path d="M16,19v28c0,1.1044922,0.8955078,2,2,2s2-0.8955078,2-2V19c0-1.1044922-0.8955078-2-2-2S16,17.8955078,16,19z"/><path d="M44,47c0,1.1044922,0.8955078,2,2,2s2-0.8955078,2-2V32c0-1.1044922-0.8955078-2-2-2s-2,0.8955078-2,2V47z"/><path d="M46,27c1.1044922,0,2-0.8955078,2-2v-6c0-1.1044922-0.8955078-2-2-2s-2,0.8955078-2,2v6C44,26.1044922,44.8955078,27,46,27   z"/><path d="M32,45c1.1044922,0,2-0.8955078,2-2V23c0-1.1044922-0.8955078-2-2-2s-2,0.8955078-2,2v20   C30,44.1044922,30.8955078,45,32,45z"/></g></svg>